<svg width="37" height="27" viewBox="0 0 37 27" fill="none" xmlns="http://www.w3.org/2000/svg">
<path d="M9.25 2.40005C9.25 1.37836 10.0783 0.550049 11.1 0.550049H35.15C36.1717 0.550049 37 1.37836 37 2.40005C37 3.42174 36.1717 4.25005 35.15 4.25005H11.1C10.0783 4.25005 9.25 3.42167 9.25 2.40005ZM35.15 11.65H1.85C0.828309 11.65 0 12.4784 0 13.5C0 14.5217 0.828309 15.35 1.85 15.35H35.15C36.1717 15.35 37 14.5217 37 13.5C37 12.4784 36.1717 11.65 35.15 11.65ZM35.15 22.75H18.5C17.4784 22.75 16.65 23.5784 16.65 24.6C16.65 25.6217 17.4784 26.45 18.5 26.45H35.15C36.1717 26.45 37 25.6217 37 24.6C37 23.5784 36.1717 22.75 35.15 22.75Z" fill="white"/>
</svg>
