<svg width="18" height="18" viewBox="0 0 18 18" fill="none" xmlns="http://www.w3.org/2000/svg">
<path d="M4.0786 8.35717C4.0268 8.02336 3.99993 7.68138 3.99993 7.33317C3.99993 3.65127 7.00433 0.666504 10.7105 0.666504C14.4166 0.666504 17.421 3.65127 17.421 7.33317C17.421 8.1649 17.2677 8.96105 16.9876 9.69526C16.9294 9.84774 16.9003 9.92399 16.8871 9.98351C16.874 10.0425 16.869 10.084 16.8676 10.1444C16.8661 10.2053 16.8744 10.2725 16.8909 10.4068L17.2264 13.1319C17.2627 13.4269 17.2809 13.5745 17.2318 13.6817C17.1888 13.7756 17.1125 13.8503 17.0175 13.8911C16.9092 13.9377 16.7621 13.9161 16.4681 13.873L13.8137 13.4839C13.6751 13.4636 13.6058 13.4535 13.5427 13.4538C13.4802 13.4542 13.437 13.4588 13.3759 13.4716C13.3142 13.4846 13.2352 13.5142 13.0774 13.5733C12.3414 13.849 11.5436 13.9998 10.7105 13.9998C10.362 13.9998 10.0197 13.9734 9.68551 13.9226M5.35961 17.3332C7.83035 17.3332 9.83329 15.2811 9.83329 12.7498C9.83329 10.2185 7.83035 8.1665 5.35961 8.1665C2.88886 8.1665 0.885924 10.2185 0.885924 12.7498C0.885924 13.2587 0.966856 13.7481 1.11625 14.2054C1.1794 14.3988 1.21098 14.4954 1.22134 14.5615C1.23216 14.6304 1.23405 14.6691 1.23003 14.7388C1.22617 14.8055 1.20947 14.8809 1.17608 15.0318L0.666626 17.3332L3.16229 16.9923C3.29851 16.9737 3.36662 16.9644 3.4261 16.9648C3.48873 16.9653 3.52196 16.9687 3.58338 16.9809C3.64171 16.9925 3.72843 17.0231 3.90185 17.0843C4.35879 17.2456 4.84922 17.3332 5.35961 17.3332Z" stroke="#475569" stroke-linecap="round" stroke-linejoin="round"/>
</svg>
