<svg width="29" height="29" viewBox="0 0 29 29" fill="none" xmlns="http://www.w3.org/2000/svg">
<g clip-path="url(#clip0_305_1100)">
<path d="M14.5 21.2588C14.1872 21.2588 13.9336 21.5124 13.9336 21.8252V21.8343C13.9336 22.1471 14.1872 22.4007 14.5 22.4007C14.8128 22.4007 15.0664 22.1471 15.0664 21.8343V21.8252C15.0664 21.5124 14.8128 21.2588 14.5 21.2588Z" fill="#2F2F2F"/>
<path d="M23.4492 0H5.55078C2.49004 0 0 2.49004 0 5.55078V23.4492C0 26.51 2.49004 29 5.55078 29H14.5C14.8128 29 15.0664 28.7464 15.0664 28.4336V24.0439C15.0664 23.7311 14.8128 23.4775 14.5 23.4775C14.1872 23.4775 13.9336 23.7311 13.9336 24.0439V27.8672H5.55078C3.11472 27.8672 1.13281 25.8853 1.13281 23.4492V5.55078C1.13281 3.11472 3.11472 1.13281 5.55078 1.13281H23.4492C25.8853 1.13281 27.8672 3.11472 27.8672 5.55078V23.4492C27.8672 25.8853 25.8853 27.8672 23.4492 27.8672H19.8242V17.8702H23.1083C23.2487 17.8702 23.3841 17.818 23.4882 17.7238C23.5924 17.6297 23.6578 17.5002 23.6719 17.3605L24.0792 13.3132C24.0871 13.2344 24.0785 13.1549 24.0537 13.0797C24.029 13.0044 23.9888 12.9353 23.9357 12.8765C23.8826 12.8178 23.8178 12.7709 23.7454 12.7388C23.6731 12.7067 23.5948 12.6901 23.5156 12.6901H19.8242V10.5649C19.8242 10.1802 19.9467 10.0372 20.2763 10.0372H23.4902C23.803 10.0372 24.0566 9.78365 24.0566 9.47082V5.52524C24.0566 5.21241 23.803 4.95883 23.4902 4.95883H19.2695C16.8779 4.95883 15.6096 6.00929 14.9668 6.8905C14.0678 8.12289 13.9335 9.57833 13.9335 10.3362V12.7155H11.1581C10.8453 12.7155 10.5917 12.9691 10.5917 13.2819V17.3037C10.5917 17.6165 10.8453 17.8701 11.1581 17.8701H13.9335V19.4844C13.9335 19.7972 14.1871 20.0508 14.4999 20.0508C14.8128 20.0508 15.0663 19.7972 15.0663 19.4844V17.3037C15.0663 16.9909 14.8128 16.7373 14.4999 16.7373H11.7246V13.8482H14.4999C14.8128 13.8482 15.0663 13.5947 15.0663 13.2818V10.3361C15.0663 9.05989 15.4759 6.09159 19.2695 6.09159H22.9238V8.90436H20.2763C19.5451 8.90436 18.6914 9.33925 18.6914 10.5648V13.2565C18.6914 13.5693 18.945 13.8229 19.2578 13.8229H22.8893L22.596 16.7373H19.2578C18.945 16.7373 18.6914 16.9909 18.6914 17.3037V28.4336C18.6914 28.7464 18.945 29 19.2578 29H23.4492C26.51 29 29 26.51 29 23.4492V5.55078C29 2.49004 26.51 0 23.4492 0Z" fill="#2F2F2F"/>
<path d="M3.28516 5.80566C2.97233 5.80566 2.71875 6.05924 2.71875 6.37207V11.1016C2.71875 11.4144 2.97233 11.668 3.28516 11.668C3.59798 11.668 3.85156 11.4144 3.85156 11.1016V6.37207C3.85156 6.05924 3.59798 5.80566 3.28516 5.80566ZM3.28516 12.9923C2.97233 12.9923 2.71875 13.2459 2.71875 13.5587V13.5654C2.71875 13.8783 2.97233 14.1318 3.28516 14.1318C3.59798 14.1318 3.85156 13.8783 3.85156 13.5654V13.5587C3.85156 13.2459 3.59798 12.9923 3.28516 12.9923Z" fill="#2F2F2F"/>
</g>
<defs>
<clipPath id="clip0_305_1100">
<rect width="29" height="29" fill="white"/>
</clipPath>
</defs>
</svg>
