<svg width="61" height="58" viewBox="0 0 61 58" fill="none" xmlns="http://www.w3.org/2000/svg">
<path d="M22.7947 51.3967C10.2259 51.3967 0 41.1709 0 28.602C0 16.0332 10.2259 5.80664 22.7947 5.80664C25.9408 5.81035 29.0522 6.46316 31.9345 7.72422C34.8167 8.98529 37.4078 10.8275 39.5456 13.1356C39.6595 13.2636 39.7187 13.4312 39.7104 13.6023C39.702 13.7734 39.6269 13.9345 39.5011 14.0508C39.3752 14.1671 39.2088 14.2293 39.0375 14.2242C38.8662 14.219 38.7038 14.1468 38.5852 14.0232C36.57 11.8473 34.1275 10.1107 31.4105 8.92183C28.6935 7.73298 25.7604 7.11752 22.7947 7.11392C10.9463 7.11392 1.30728 16.7536 1.30728 28.602C1.30728 40.4504 10.9463 50.0895 22.7947 50.0895C27.0514 50.0895 31.16 48.848 34.6754 46.4993C34.7468 46.4517 34.8269 46.4185 34.9111 46.4018C34.9952 46.385 35.0819 46.3851 35.1661 46.4018C35.2503 46.4186 35.3303 46.4517 35.4017 46.4994C35.473 46.5471 35.5343 46.6084 35.582 46.6798C35.6297 46.7511 35.6628 46.8312 35.6796 46.9154C35.6963 46.9996 35.6963 47.0862 35.6795 47.1704C35.6628 47.2546 35.6296 47.3346 35.5819 47.406C35.5342 47.4774 35.4729 47.5386 35.4016 47.5863C31.6703 50.0793 27.311 51.3967 22.7947 51.3967Z" fill="#4C4C4C"/>
<path d="M22.7966 35.2989C21.8847 35.2981 21.0075 34.9493 20.344 34.3236C19.6806 33.6979 19.281 32.8426 19.2268 31.9323L18.3987 17.82C18.361 17.2206 18.4475 16.6198 18.6527 16.0553C18.858 15.4908 19.1775 14.9748 19.5914 14.5395C20.4334 13.6475 21.571 13.1562 22.7966 13.1562C24.0222 13.1562 25.1611 13.6475 26.0025 14.5395C26.4163 14.9748 26.7357 15.4909 26.9408 16.0554C27.146 16.6199 27.2323 17.2206 27.1945 17.82L26.3671 31.9323C26.3129 32.8426 25.9133 33.6979 25.2499 34.3236C24.5864 34.9493 23.7092 35.2981 22.7973 35.2989H22.7966ZM22.7966 14.4635C22.3743 14.462 21.9561 14.5476 21.5683 14.715C21.1805 14.8824 20.8315 15.1281 20.5429 15.4365C20.252 15.7427 20.0273 16.1056 19.883 16.5025C19.7386 16.8995 19.6778 17.3219 19.7041 17.7434L20.5322 31.8551C20.6018 33.0534 21.5976 33.9916 22.7966 33.9916C23.9957 33.9916 24.9915 33.0534 25.0617 31.8551L25.8898 17.7434C25.9162 17.3219 25.8553 16.8995 25.7109 16.5025C25.5666 16.1056 25.3419 15.7427 25.051 15.4365C24.7625 15.1281 24.4134 14.8824 24.0256 14.715C23.6378 14.5476 23.2197 14.462 22.7973 14.4635H22.7966ZM23.1575 44.0447H22.4358C21.6239 44.0439 20.8454 43.721 20.2712 43.1469C19.6971 42.5729 19.374 41.7945 19.373 40.9826V40.6154C19.3739 39.8032 19.6969 39.0246 20.2712 38.4504C20.8456 37.8762 21.6243 37.5533 22.4364 37.5526H23.1581C23.9699 37.5536 24.7482 37.8766 25.3223 38.4506C25.8963 39.0247 26.2192 39.8029 26.2202 40.6148V40.9819C26.2196 41.7941 25.8967 42.5728 25.3225 43.1471C24.7483 43.7215 23.9696 44.0439 23.1575 44.0447ZM22.4358 38.8599C21.9705 38.8604 21.5243 39.0454 21.1953 39.3744C20.8662 39.7034 20.681 40.1494 20.6803 40.6148V40.9819C20.6808 41.4475 20.866 41.8938 21.1953 42.2229C21.5245 42.552 21.9709 42.7371 22.4364 42.7374H23.1581C23.6233 42.7367 24.0693 42.5516 24.3982 42.2227C24.7272 41.8937 24.9123 41.4478 24.913 40.9826V40.6154C24.9125 40.15 24.7274 39.7037 24.3982 39.3746C24.0691 39.0455 23.6229 38.8604 23.1575 38.8599H22.4358Z" fill="#FFA12B"/>
<path d="M45.9306 15.0606C41.9658 15.0606 39.2024 10.7577 39.2024 6.89597C39.2024 3.00643 42.0322 0.183594 45.9306 0.183594C49.8297 0.183594 52.6588 3.00643 52.6588 6.89597C52.6588 10.7577 49.8955 15.0606 45.9306 15.0606ZM45.9306 1.49087C42.7387 1.49087 40.5097 3.71292 40.5097 6.89597C40.5097 10.4848 43.0939 13.7533 45.9306 13.7533C48.768 13.7533 51.3516 10.4848 51.3516 6.89597C51.3516 3.71356 49.1219 1.49087 45.9306 1.49087ZM50.2228 58C49.2908 58.0005 48.392 57.6541 47.7013 57.0283C47.3147 56.6767 47.0057 56.2483 46.794 55.7706C46.5824 55.2928 46.4726 54.7761 46.4719 54.2536V42.9306C46.4713 42.7352 46.4129 42.5444 46.3039 42.3822C46.1949 42.2201 46.0403 42.0939 45.8596 42.0196C45.6789 41.9452 45.4803 41.9262 45.2887 41.9647C45.0972 42.0032 44.9214 42.0977 44.7835 42.2361C44.6906 42.3262 44.6167 42.4342 44.5665 42.5535C44.5162 42.6729 44.4906 42.8011 44.491 42.9306V54.1168C44.491 56.1078 43.0052 57.8063 41.1073 57.9836C40.5875 58.0332 40.0631 57.974 39.5674 57.8096C39.0718 57.6452 38.6159 57.3793 38.2288 57.0289C37.8423 56.6773 37.5334 56.2489 37.3218 55.7711C37.1103 55.2934 37.0007 54.7767 37 54.2542V33.0795C37 32.9061 37.0689 32.7399 37.1914 32.6173C37.314 32.4947 37.4803 32.4258 37.6536 32.4258C37.827 32.4258 37.9933 32.4947 38.1158 32.6173C38.2384 32.7399 38.3073 32.9061 38.3073 33.0795V54.2536C38.3073 54.9392 38.5985 55.5982 39.1081 56.0603C39.3592 56.2903 39.6562 56.4646 39.9795 56.5716C40.3028 56.6787 40.6451 56.7161 40.9839 56.6814C42.2183 56.5662 43.1838 55.4393 43.1838 54.1162V42.9306C43.1824 42.6281 43.242 42.3285 43.3589 42.0495C43.4758 41.7705 43.6477 41.5179 43.8643 41.3068C44.0768 41.0936 44.3294 40.9246 44.6076 40.8095C44.8858 40.6945 45.1839 40.6356 45.485 40.6364C46.0933 40.6369 46.6766 40.8787 47.1069 41.3088C47.5371 41.739 47.7791 42.3222 47.7798 42.9306V54.2536C47.7798 54.9392 48.071 55.5982 48.5806 56.0603C48.8318 56.2903 49.1288 56.4645 49.4521 56.5716C49.7754 56.6786 50.1176 56.716 50.4564 56.6814C51.6909 56.5662 52.6563 55.4393 52.6563 54.1162V33.9683C52.6563 33.795 52.7252 33.6287 52.8477 33.5061C52.9703 33.3835 53.1366 33.3147 53.3099 33.3147C53.4833 33.3147 53.6496 33.3835 53.7721 33.5061C53.8947 33.6287 53.9636 33.795 53.9636 33.9683V54.1168C53.9636 56.1078 52.4771 57.8063 50.5792 57.9836C50.4608 57.995 50.3418 58.0001 50.2228 58Z" fill="#4C4C4C"/>
<path d="M55.1013 34.6222H42.511C42.4139 34.6221 42.318 34.6003 42.2304 34.5585C42.1428 34.5168 42.0656 34.456 42.0043 34.3806C41.9431 34.3053 41.8994 34.2173 41.8765 34.1229C41.8535 34.0286 41.8518 33.9304 41.8716 33.8353L42.0539 32.9591C42.07 32.8738 42.103 32.7925 42.1509 32.72C42.1988 32.6476 42.2606 32.5854 42.3328 32.5371C42.4051 32.4888 42.4862 32.4555 42.5715 32.4389C42.6567 32.4224 42.7445 32.423 42.8295 32.4408C42.9145 32.4585 42.9951 32.4931 43.0667 32.5424C43.1382 32.5917 43.1992 32.6547 43.246 32.7279C43.2929 32.801 43.3247 32.8828 43.3395 32.9684C43.3544 33.0539 43.3521 33.1416 43.3327 33.2263L43.315 33.3149H54.5689L55.1273 30.6193C55.1625 30.4495 55.2638 30.3006 55.4088 30.2055C55.5539 30.1103 55.7307 30.0767 55.9006 30.1119C56.0704 30.1472 56.2193 30.2485 56.3144 30.3935C56.4096 30.5385 56.4432 30.7154 56.408 30.8852L55.7414 34.1012C55.6781 34.4051 55.4109 34.6222 55.1013 34.6222ZM43.917 27.8763C43.8198 27.8763 43.7239 27.8547 43.6361 27.813C43.5483 27.7713 43.471 27.7106 43.4097 27.6352C43.3483 27.5598 43.3046 27.4717 43.2817 27.3773C43.2587 27.2828 43.2571 27.1845 43.277 27.0894L45.8523 14.7206C45.8828 14.5736 45.9631 14.4416 46.0795 14.3468C46.196 14.252 46.3415 14.2003 46.4917 14.2002H59.082C59.1791 14.2004 59.2749 14.2223 59.3624 14.2641C59.45 14.3059 59.5272 14.3667 59.5884 14.442C59.6496 14.5173 59.6933 14.6053 59.7163 14.6996C59.7393 14.7938 59.741 14.8921 59.7214 14.9871L57.5456 25.4276C57.5295 25.5129 57.4965 25.5942 57.4486 25.6667C57.4007 25.7392 57.3389 25.8013 57.2666 25.8496C57.1944 25.8979 57.1133 25.9313 57.028 25.9478C56.9427 25.9644 56.855 25.9637 56.77 25.946C56.685 25.9282 56.6043 25.8937 56.5328 25.8444C56.4613 25.7951 56.4003 25.732 56.3535 25.6588C56.3066 25.5857 56.2748 25.5039 56.2599 25.4184C56.2451 25.3328 56.2474 25.2451 56.2668 25.1604L58.2787 15.5087H47.0241L44.5551 27.3559C44.4918 27.6642 44.2196 27.8763 43.9157 27.8763H43.917Z" fill="#4C4C4C"/>
<path d="M44.0955 33.7463H37.8434C34.7534 33.7463 32.2401 31.233 32.2401 28.1437V23.3831C32.2401 19.0263 35.7846 15.4824 40.1407 15.4824H45.9307C46.1041 15.4824 46.2704 15.5513 46.3929 15.6739C46.5155 15.7964 46.5844 15.9627 46.5844 16.1361C46.5844 16.3094 46.5155 16.4757 46.3929 16.5983C46.2704 16.7208 46.1041 16.7897 45.9307 16.7897H40.1407C36.5051 16.7897 33.5474 19.7474 33.5474 23.3831V28.1437C33.5489 29.2825 34.002 30.3743 34.8074 31.1795C35.6127 31.9847 36.7045 32.4377 37.8434 32.439H44.0955C45.3547 32.439 46.3783 31.4154 46.3783 30.1562C46.3783 28.897 45.3547 27.8734 44.0955 27.8734H38.6486C38.2878 27.8734 37.9953 27.5803 37.9953 27.2194V23.454C37.9953 23.2806 38.0642 23.1143 38.1867 22.9918C38.3093 22.8692 38.4756 22.8003 38.6489 22.8003C38.8223 22.8003 38.9885 22.8692 39.1111 22.9918C39.2337 23.1143 39.3026 23.2806 39.3026 23.454V26.5655H44.0955C45.0474 26.5666 45.96 26.9453 46.633 27.6185C47.3061 28.2917 47.6846 29.2043 47.6856 30.1562C47.6844 31.108 47.3058 32.0205 46.6328 32.6935C45.9598 33.3665 45.0473 33.7451 44.0955 33.7463ZM57.5867 31.8047H57.2468C56.295 31.8035 55.3825 31.4249 54.7095 30.7519C54.0365 30.0789 53.6578 29.1664 53.6567 28.2146C53.6577 27.2627 54.0362 26.3501 54.7093 25.6769C55.3823 25.0037 56.2949 24.625 57.2468 24.6239H57.926C58.2398 24.624 58.5499 24.6908 58.8359 24.8198C59.122 24.9488 59.3773 25.1371 59.5851 25.3722C59.7929 25.6072 59.9484 25.8838 60.0413 26.1835C60.1342 26.4831 60.1624 26.7991 60.124 27.1105L59.7841 29.8612C59.7174 30.3972 59.4574 30.8905 59.0528 31.2484C58.6482 31.6062 58.1269 31.804 57.5867 31.8047ZM57.2468 25.9311C55.9882 25.9311 54.9639 26.9554 54.9639 28.2146C54.9639 29.4738 55.9882 30.4974 57.2468 30.4974H57.5867C58.0438 30.4974 58.4306 30.1556 58.4869 29.7017L58.8269 26.9497C58.8435 26.8222 58.8324 26.6925 58.7944 26.5696C58.7564 26.4467 58.6923 26.3334 58.6066 26.2375C58.5218 26.1405 58.4172 26.063 58.2997 26.0101C58.1823 25.9572 58.0548 25.9303 57.926 25.9311H57.2468ZM56.5295 57.9629H29.0071C28.8337 57.9629 28.6674 57.894 28.5449 57.7715C28.4223 57.6489 28.3534 57.4826 28.3534 57.3093C28.3534 57.1359 28.4223 56.9696 28.5449 56.8471C28.6674 56.7245 28.8337 56.6556 29.0071 56.6556H56.5295C56.7029 56.6556 56.8691 56.7245 56.9917 56.8471C57.1143 56.9696 57.1831 57.1359 57.1831 57.3093C57.1831 57.4826 57.1143 57.6489 56.9917 57.7715C56.8691 57.894 56.7029 57.9629 56.5295 57.9629ZM25.0821 57.9629H22.7967C22.6233 57.9629 22.4571 57.894 22.3345 57.7715C22.2119 57.6489 22.1431 57.4826 22.1431 57.3093C22.1431 57.1359 22.2119 56.9696 22.3345 56.8471C22.4571 56.7245 22.6233 56.6556 22.7967 56.6556H25.0821C25.2554 56.6556 25.4217 56.7245 25.5443 56.8471C25.6668 56.9696 25.7357 57.1359 25.7357 57.3093C25.7357 57.4826 25.6668 57.6489 25.5443 57.7715C25.4217 57.894 25.2554 57.9629 25.0821 57.9629Z" fill="#4C4C4C"/>
</svg>
