<svg width="29" height="29" viewBox="0 0 29 29" fill="none" xmlns="http://www.w3.org/2000/svg">
<path d="M14.5046 7.05371C13.5274 7.05355 12.5598 7.24591 11.6569 7.61979C10.7541 7.99368 9.93375 8.54177 9.24276 9.23275C8.55178 9.92374 8.00369 10.7441 7.6298 11.6469C7.25592 12.5498 7.06356 13.5174 7.06372 14.4946C7.06356 15.4718 7.25592 16.4395 7.6298 17.3423C8.00369 18.2452 8.55178 19.0655 9.24276 19.7565C9.93375 20.4475 10.7541 20.9956 11.6569 21.3695C12.5598 21.7433 13.5274 21.9357 14.5046 21.9355C15.4818 21.9357 16.4495 21.7433 17.3523 21.3695C18.2552 20.9956 19.0755 20.4475 19.7665 19.7565C20.4575 19.0655 21.0056 18.2452 21.3795 17.3423C21.7534 16.4395 21.9457 15.4718 21.9456 14.4946C21.9457 13.5174 21.7534 12.5498 21.3795 11.6469C21.0056 10.7441 20.4575 9.92374 19.7665 9.23275C19.0755 8.54177 18.2552 7.99368 17.3523 7.61979C16.4495 7.24591 15.4818 7.05355 14.5046 7.05371ZM14.5046 19.3243C13.5498 19.3241 12.6164 19.0407 11.8225 18.5101C11.0287 17.9794 10.41 17.2253 10.0447 16.3431C9.67935 15.4608 9.58384 14.4901 9.77018 13.5535C9.95653 12.617 10.4164 11.7568 11.0916 11.0816C11.7668 10.4064 12.627 9.94652 13.5636 9.76017C14.5001 9.57383 15.4708 9.66934 16.3531 10.0347C17.2353 10.4 17.9894 11.0187 18.5201 11.8125C19.0507 12.6064 19.3341 13.5397 19.3343 14.4946C19.3347 15.129 19.21 15.7571 18.9674 16.3433C18.7248 16.9294 18.369 17.4619 17.9205 17.9105C17.4719 18.359 16.9394 18.7147 16.3533 18.9573C15.7672 19.1999 15.139 19.3247 14.5046 19.3243Z" fill="#2F2F2F"/>
<path d="M20.4786 0.0920688C17.8106 -0.0323896 11.2022 -0.0263479 8.53183 0.0920688C6.18524 0.202027 4.11537 0.768735 2.44666 2.43744C-0.342172 5.22628 0.0142863 8.98419 0.0142863 14.4954C0.0142863 20.1359 -0.29988 23.8068 2.44666 26.5534C5.24637 29.3519 9.05866 28.9857 14.5046 28.9857C20.092 28.9857 22.0205 28.9894 23.9961 28.2245C26.6822 27.1817 28.7098 24.7807 28.908 20.4682C29.0336 17.799 29.0264 11.1918 28.908 8.5214C28.6687 3.43069 25.9367 0.343402 20.4786 0.0920688ZM24.7017 24.7082C22.8735 26.5364 20.3372 26.3733 14.4696 26.3733C8.42791 26.3733 6.0052 26.4627 4.23741 24.6901C2.20137 22.6637 2.56991 19.4097 2.56991 14.4761C2.56991 7.80003 1.88479 2.99207 8.58499 2.6489C10.1244 2.59453 10.5775 2.5764 14.4527 2.5764L14.507 2.61265C20.9462 2.61265 25.9983 1.9384 26.3016 8.6374C26.3705 10.1659 26.3862 10.6251 26.3862 14.4942C26.385 20.4658 26.4985 22.903 24.7017 24.7082Z" fill="#2F2F2F"/>
<path d="M22.2405 8.49907C23.2008 8.49907 23.9793 7.72058 23.9793 6.76028C23.9793 5.79997 23.2008 5.02148 22.2405 5.02148C21.2802 5.02148 20.5017 5.79997 20.5017 6.76028C20.5017 7.72058 21.2802 8.49907 22.2405 8.49907Z" fill="#2F2F2F"/>
</svg>
