<svg width="24" height="24" viewBox="0 0 24 24" fill="none" xmlns="http://www.w3.org/2000/svg">
<path d="M9.6059 2.40024C7.69517 2.40024 5.8627 3.15932 4.5116 4.51049C3.16051 5.86166 2.40148 7.69424 2.40148 9.60508C2.40148 11.5159 3.16051 13.3485 4.5116 14.6997C5.8627 16.0508 7.69517 16.8099 9.6059 16.8099C11.5166 16.8099 13.3491 16.0508 14.7002 14.6997C16.0513 13.3485 16.8103 11.5159 16.8103 9.60508C16.8103 7.69424 16.0513 5.86166 14.7002 4.51049C13.3491 3.15932 11.5166 2.40024 9.6059 2.40024ZM5.9336e-08 9.60508C0.000218926 8.07628 0.365286 6.56962 1.06486 5.2103C1.76444 3.85098 2.77832 2.67826 4.02224 1.78961C5.26616 0.900961 6.70419 0.322044 8.21683 0.100971C9.72947 -0.120101 11.273 0.0230565 12.7192 0.518546C14.1654 1.01404 15.4725 1.84755 16.5318 2.94981C17.5911 4.05207 18.372 5.39125 18.8097 6.85604C19.2474 8.32084 19.3291 9.86895 19.0482 11.3717C18.7673 12.8745 18.1318 14.2885 17.1946 15.4962L23.6629 21.965C23.8817 22.1915 24.0027 22.4948 24 22.8096C23.9972 23.1245 23.8709 23.4257 23.6483 23.6483C23.4257 23.8709 23.1245 23.9972 22.8097 24C22.4949 24.0027 22.1916 23.8817 21.9651 23.6629L15.4967 17.1942C14.0768 18.2966 12.376 18.9785 10.5878 19.1623C8.79962 19.346 6.99573 19.0243 5.38128 18.2337C3.76684 17.4431 2.40663 16.2152 1.45532 14.6899C0.504021 13.1645 -0.000199707 11.4028 5.9336e-08 9.60508Z" fill="#2E81FD"/>
</svg>
