<svg width="25" height="25" viewBox="0 0 25 25" fill="none" xmlns="http://www.w3.org/2000/svg">
<g clip-path="url(#clip0_305_1028)">
<path d="M15.1042 21.8753H10.9375C10.2471 21.8745 9.58519 21.5999 9.09699 21.1117C8.60879 20.6235 8.33416 19.9616 8.33333 19.2712V17.1878C8.33333 17.0497 8.38821 16.9172 8.48588 16.8195C8.58356 16.7219 8.71603 16.667 8.85417 16.667C8.9923 16.667 9.12478 16.7219 9.22245 16.8195C9.32013 16.9172 9.375 17.0497 9.375 17.1878V19.2712C9.375 20.1326 10.076 20.8337 10.9375 20.8337H15.1042C15.2423 20.8337 15.3748 20.8885 15.4725 20.9862C15.5701 21.0839 15.625 21.2164 15.625 21.3545C15.625 21.4926 15.5701 21.6251 15.4725 21.7228C15.3748 21.8205 15.2423 21.8753 15.1042 21.8753ZM10.9375 11.4587H0.520833C0.3827 11.4587 0.250224 11.4038 0.152549 11.3061C0.0548734 11.2084 0 11.076 0 10.9378C0 10.7997 0.0548734 10.6672 0.152549 10.5695C0.250224 10.4719 0.3827 10.417 0.520833 10.417H10.9375C11.0756 10.417 11.2081 10.4719 11.3058 10.5695C11.4035 10.6672 11.4583 10.7997 11.4583 10.9378C11.4583 11.076 11.4035 11.2084 11.3058 11.3061C11.2081 11.4038 11.0756 11.4587 10.9375 11.4587Z" fill="white"/>
<path d="M16.6667 25C15.5177 25 14.5834 24.0656 14.5834 22.9167V4.16667C14.5834 3.27083 15.1584 2.47813 16.0136 2.19271L22.2636 0.109375C22.4615 0.0385417 22.6855 0 22.9167 0C24.0657 0 25 0.934375 25 2.08333V20.8333C25 21.7281 24.4261 22.5219 23.5709 22.8063L17.3209 24.8896C17.1107 24.9634 16.8895 25.0007 16.6667 25ZM22.9167 1.04167C22.8104 1.04167 22.7048 1.05927 22.6042 1.09375L16.3427 3.18125C16.1346 3.24902 15.9532 3.38077 15.8243 3.55772C15.6954 3.73466 15.6257 3.94777 15.625 4.16667V22.9167C15.625 23.4906 16.0927 23.9583 16.6667 23.9583C16.7738 23.9583 16.8801 23.9404 16.9813 23.9052L23.2417 21.8188C23.6698 21.675 23.9584 21.2792 23.9584 20.8333V2.08333C23.9584 1.50938 23.4907 1.04167 22.9167 1.04167Z" fill="white"/>
<path d="M8.85418 5.20833C8.71605 5.20833 8.58357 5.15346 8.48589 5.05579C8.38822 4.95811 8.33335 4.82563 8.33335 4.6875V2.60417C8.33335 1.16875 9.5021 0 10.9375 0H22.9167C23.0548 0 23.1873 0.0548734 23.285 0.152549C23.3826 0.250224 23.4375 0.3827 23.4375 0.520833C23.4375 0.658967 23.3826 0.791443 23.285 0.889118C23.1873 0.986793 23.0548 1.04167 22.9167 1.04167H10.9375C10.0761 1.04167 9.37501 1.74271 9.37501 2.60417V4.6875C9.37501 4.82563 9.32014 4.95811 9.22246 5.05579C9.12479 5.15346 8.99231 5.20833 8.85418 5.20833ZM6.77085 15.625C6.66791 15.625 6.56729 15.5945 6.4817 15.5373C6.3961 15.4801 6.32936 15.3989 6.2899 15.3038C6.25045 15.2087 6.24005 15.1041 6.26002 15.0031C6.27998 14.9022 6.32942 14.8094 6.4021 14.7365L10.2011 10.9375L6.4021 7.13958C6.30722 7.04135 6.25472 6.90979 6.25591 6.77323C6.2571 6.63667 6.31187 6.50604 6.40844 6.40947C6.50501 6.3129 6.63564 6.25813 6.7722 6.25694C6.90876 6.25575 7.04032 6.30825 7.13855 6.40313L11.3052 10.5698C11.4029 10.6675 11.4577 10.7999 11.4577 10.938C11.4577 11.0761 11.4029 11.2086 11.3052 11.3063L7.13855 15.4729C7.09029 15.5212 7.03296 15.5595 6.96986 15.5856C6.90676 15.6117 6.83913 15.6251 6.77085 15.625Z" fill="white"/>
</g>
<defs>
<clipPath id="clip0_305_1028">
<rect width="25" height="25" fill="white"/>
</clipPath>
</defs>
</svg>
