<svg width="29" height="29" viewBox="0 0 29 29" fill="none" xmlns="http://www.w3.org/2000/svg">
<path d="M25.0455 0H3.95455C2.90574 0 1.89988 0.416638 1.15826 1.15826C0.416638 1.89988 0 2.90574 0 3.95455L0 25.0455C0 26.0943 0.416638 27.1001 1.15826 27.8417C1.89988 28.5834 2.90574 29 3.95455 29H25.0455C26.0943 29 27.1001 28.5834 27.8417 27.8417C28.5834 27.1001 29 26.0943 29 25.0455V3.95455C29 2.90574 28.5834 1.89988 27.8417 1.15826C27.1001 0.416638 26.0943 0 25.0455 0ZM23.5279 9.01472C23.0977 9.65735 22.574 10.2321 21.9741 10.7201C21.8965 10.7826 21.8339 10.8616 21.7909 10.9514C21.7478 11.0412 21.7254 11.1396 21.7253 11.2391V11.2985C21.7186 12.5934 21.4809 13.8768 21.0234 15.0882C20.5522 16.358 19.8525 17.5308 18.9587 18.5485C18.0243 19.6154 16.8771 20.4752 15.5908 21.0728C15.2358 21.2337 14.8715 21.3735 14.5 21.4913C13.3645 21.8598 12.1775 22.0445 10.9838 22.0384C9.09323 22.0364 7.23678 21.535 5.60227 20.5851C5.54375 20.5518 5.49772 20.5003 5.47124 20.4384C5.44476 20.3765 5.43927 20.3076 5.45563 20.2423C5.4722 20.1778 5.50993 20.1206 5.56279 20.08C5.61566 20.0394 5.68061 20.0176 5.74727 20.0182H6.19875C7.63757 20.0214 9.0445 19.5945 10.239 18.7923C9.52682 18.6765 8.8604 18.3665 8.31301 17.8964C7.76562 17.4263 7.35846 16.8144 7.13631 16.128C7.1254 16.0942 7.12346 16.0582 7.13066 16.0235C7.13787 15.9888 7.15399 15.9566 7.17742 15.93C7.20086 15.9034 7.23081 15.8834 7.26434 15.8719C7.29786 15.8603 7.33381 15.8577 7.36864 15.8643C7.58591 15.9056 7.80656 15.9266 8.02773 15.9269H8.11011C7.42204 15.6108 6.84031 15.102 6.4353 14.4622C6.03029 13.8224 5.81936 13.0789 5.82801 12.3217C5.82829 12.2861 5.83784 12.2513 5.85573 12.2205C5.87363 12.1898 5.89924 12.1642 5.93003 12.1464C5.96082 12.1286 5.99573 12.1191 6.0313 12.119C6.06687 12.1188 6.10187 12.1279 6.13284 12.1454C6.41211 12.3007 6.71154 12.4166 7.02261 12.4898C6.40645 11.8806 6.00987 11.0842 5.89507 10.2254C5.78026 9.36656 5.95372 8.49394 6.38824 7.74432C6.40505 7.7168 6.42814 7.69366 6.45561 7.67678C6.48308 7.65989 6.51415 7.64975 6.5463 7.64718C6.57844 7.64461 6.61073 7.64968 6.64054 7.66198C6.67034 7.67428 6.69681 7.69346 6.71778 7.71796C7.58078 8.78458 8.64931 9.66691 9.85993 10.3126C11.0705 10.9582 12.3986 11.354 13.7651 11.4764H13.7799C13.8003 11.4761 13.8203 11.4716 13.8387 11.4631C13.8572 11.4546 13.8737 11.4423 13.887 11.427C13.9 11.4123 13.9098 11.395 13.9158 11.3763C13.9217 11.3575 13.9237 11.3378 13.9216 11.3182C13.8704 10.8392 13.9016 10.3549 14.0139 9.88636C14.1123 9.47672 14.2795 9.08672 14.5082 8.73295C14.9887 7.97833 15.7206 7.41801 16.5745 7.15114C16.975 7.02556 17.3922 6.96113 17.8119 6.96C18.7638 6.95906 19.6832 7.30596 20.3972 7.93545C20.4882 8.0163 20.6051 8.0619 20.7268 8.06398C20.7668 8.06331 20.8067 8.05778 20.8454 8.0475C21.5163 7.87746 22.1594 7.61223 22.7551 7.25989C22.7907 7.23849 22.832 7.22845 22.8735 7.23111C22.9149 7.23377 22.9546 7.24901 22.9871 7.27478C23.0197 7.30055 23.0437 7.33565 23.0558 7.37538C23.0679 7.41511 23.0676 7.45759 23.055 7.49716C22.8557 8.12101 22.502 8.68439 22.0268 9.135C22.4553 9.03345 22.8735 8.89224 23.2758 8.71318C23.3164 8.6951 23.3618 8.69074 23.4051 8.70077C23.4484 8.7108 23.4872 8.73467 23.5157 8.76876C23.5442 8.80285 23.5608 8.84531 23.563 8.88969C23.5652 8.93408 23.5529 8.97797 23.5279 9.01472Z" fill="#2F2F2F"/>
</svg>
